<?xml version="1.0" encoding="UTF-8"?>
<svg width="32px" height="32px" viewBox="0 0 32 32" version="1.1" xmlns="http://www.w3.org/2000/svg" xmlns:xlink="http://www.w3.org/1999/xlink">
    <!-- Generator: Sketch 55.2 (78181) - https://sketchapp.com -->
    <title>v</title>
    <desc>Created with Sketch.</desc>
    <g id="symbols" stroke="none" stroke-width="1" fill="none" fill-rule="evenodd">
        <g id="TOPBAR-voices" transform="translate(-810.000000, -13.000000)">
            <g id="bloque-derecho" transform="translate(421.000000, 13.000000)">
                <g id="Random" transform="translate(389.000000, 0.000000)">
                    <g id="Group-3" transform="translate(18.000000, 0.000000)" fill="#FFFFFF" fill-opacity="0.8" fill-rule="nonzero">
                        <path d="M3.44813359,0.0809215464 C3.21857585,-0.0178389215 2.95640235,-0.0265531618 2.71994976,0.0567178459 C2.48349718,0.139988854 2.2923817,0.308336919 2.18912875,0.524302625 L0.0887645705,3.73745465 C-0.132120063,4.18189844 0.0734308393,4.70993096 0.547875363,4.91684831 C1.02231989,5.12376566 1.58599555,4.93121245 1.80688019,4.48676868 L3.91197747,1.26031521 C4.01800938,1.04637287 4.02868177,0.801673284 3.94163406,0.580341214 C3.85458634,0.359009145 3.67699226,0.179284943 3.44813359,0.0809215464 Z" id="Path"></path>
                        <path d="M8.44813359,0.0809215464 C8.21857585,-0.0178389215 7.95640235,-0.0265531618 7.71994976,0.0567178459 C7.48349718,0.139988854 7.2923817,0.308336919 7.18912875,0.524302625 L5.08876457,3.73745465 C4.86787994,4.18189844 5.07343084,4.70993096 5.54787536,4.91684831 C6.02231989,5.12376566 6.58599555,4.93121245 6.80688019,4.48676868 L8.91197747,1.26031521 C9.01800938,1.04637287 9.02868177,0.801673284 8.94163406,0.580341214 C8.85458634,0.359009145 8.67699226,0.179284943 8.44813359,0.0809215464 Z" id="Path-Copy"></path>
                        <path d="M10.4481336,4.08092155 C10.2185758,3.98216108 9.95640235,3.97344684 9.71994976,4.05671785 C9.48349718,4.13998885 9.2923817,4.30833692 9.18912875,4.52430262 L7.08876457,7.73745465 C6.86787994,8.18189844 7.07343084,8.70993096 7.54787536,8.91684831 C8.02231989,9.12376566 8.58599555,8.93121245 8.80688019,8.48676868 L10.9119775,5.26031521 C11.0180094,5.04637287 11.0286818,4.80167328 10.9416341,4.58034121 C10.8545863,4.35900914 10.6769923,4.17928494 10.4481336,4.08092155 Z" id="Path"></path>
                    </g>
                    <g id="Group-2" transform="translate(3.000000, 8.000000)">
                        <g id="Group" stroke="#FFFFFF" stroke-width="2">
                            <path d="M0,12 L12,12" id="Path-7"></path>
                            <polygon id="Path-4" points="5.92105263 0 18 0 25 9 20 20 8 20 0 12"></polygon>
                            <polyline id="Path-5" points="18 1 12 12 20 20"></polyline>
                        </g>
                        <path d="M10.633793,16.9298474 C11.0628221,16.7012815 11.1213261,16.1038936 10.7751776,15.5896204 C10.4735304,15.0918165 9.89209553,14.8774496 9.366207,15.0701526 C8.93717789,15.2987185 8.87867392,15.8961064 9.22482241,16.4103796 C9.5264696,16.9081835 10.1079045,17.1225504 10.633793,16.9298474 L10.633793,16.9298474 Z" id="Path" fill="#FFFFFF" fill-rule="nonzero"></path>
                        <path d="M8.29746209,4.95445408 C8.82459253,4.7901703 9.11873786,4.22966834 8.95445408,3.70253791 C8.7901703,3.17540747 8.22966834,2.88126214 7.70253791,3.04554592 C7.17540747,3.2098297 6.88126214,3.77033166 7.04554592,4.29746209 C7.2098297,4.82459253 7.77033166,5.11873786 8.29746209,4.95445408 Z" id="Oval" fill="#FFFFFF" fill-rule="nonzero"></path>
                        <path d="M10.2979618,8.95429805 C10.825006,8.78973831 11.1188578,8.2290825 10.954298,7.70203824 C10.7897383,7.17499398 10.2290825,6.88114222 9.70203824,7.04570195 C9.17499398,7.21026169 8.88114222,7.7709175 9.04570195,8.29796176 C9.21026169,8.82500602 9.7709175,9.11885778 10.2979618,8.95429805 Z" id="Oval" fill="#FFFFFF" fill-rule="nonzero"></path>
                        <path d="M19.5048881,7.98634357 C19.9815085,7.8959039 20.1418396,7.38098701 19.8629976,6.8362445 C19.5841556,6.29150199 18.9717323,5.92321677 18.4951119,6.01365643 C18.0184915,6.1040961 17.8581604,6.61901299 18.1370024,7.1637555 C18.4158444,7.70849801 19.0282677,8.07678323 19.5048881,7.98634357 Z" id="Oval" fill="#FFFFFF" fill-rule="nonzero"></path>
                        <path d="M19.5048881,10.9863436 C19.9815085,10.8959039 20.1418396,10.380987 19.8629976,9.8362445 C19.5841556,9.29150199 18.9717323,8.92321677 18.4951119,9.01365643 C18.0184915,9.1040961 17.8581604,9.61901299 18.1370024,10.1637555 C18.4158444,10.708498 19.0282677,11.0767832 19.5048881,10.9863436 Z" id="Oval" fill="#FFFFFF" fill-rule="nonzero"></path>
                        <path d="M19.5098534,13.985988 C19.9848624,13.8943822 20.1416641,13.378679 19.8600798,12.8341329 C19.5784955,12.2895867 18.9651556,11.9224061 18.4901466,12.014012 C18.0151376,12.1056178 17.8583359,12.621321 18.1399202,13.1658671 C18.4215045,13.7104133 19.0348444,14.0775939 19.5098534,13.985988 Z" id="Oval" fill="#FFFFFF" fill-rule="nonzero"></path>
                    </g>
                </g>
            </g>
        </g>
    </g>
</svg>