<?xml version="1.0" encoding="UTF-8"?>
<svg width="12px" height="12px" viewBox="0 0 12 12" version="1.1" xmlns="http://www.w3.org/2000/svg" xmlns:xlink="http://www.w3.org/1999/xlink">
    <!-- Generator: sketchtool 55.2 (78181) - https://sketchapp.com -->
    <title>DA5004E0-A3EA-492E-98D7-CB3B2FB218B0</title>
    <desc>Created with sketchtool.</desc>
    <g id="symbols" stroke="none" stroke-width="1" fill="none" fill-rule="evenodd">
        <g id="TOPBAR-voices" transform="translate(-243.000000, -23.000000)" fill="#FFFFFF">
            <g id="buscador" transform="translate(25.000000, 13.000000)">
                <g id="search-close" transform="translate(217.632683, 9.565699)">
                    <path d="M-0.114348882,5.55263514 L12.9523178,5.55263514 C13.4677836,5.55263514 13.8856511,5.97050271 13.8856511,6.48596848 C13.8856511,7.00143424 13.4677836,7.41930181 12.9523178,7.41930181 L-0.114348882,7.41930181 C-0.629814648,7.41930181 -1.04768221,7.00143424 -1.04768221,6.48596848 C-1.04768221,5.97050271 -0.629814648,5.55263514 -0.114348882,5.55263514 Z" id="Rectangle" transform="translate(6.418984, 6.485968) rotate(-315.000000) translate(-6.418984, -6.485968) "></path>
                    <path d="M-0.0196191664,5.55263514 L13.0470475,5.55263514 C13.5625133,5.55263514 13.9803808,5.97050271 13.9803808,6.48596848 C13.9803808,7.00143424 13.5625133,7.41930181 13.0470475,7.41930181 L-0.0196191664,7.41930181 C-0.535084933,7.41930181 -0.9529525,7.00143424 -0.9529525,6.48596848 C-0.9529525,5.97050271 -0.535084933,5.55263514 -0.0196191664,5.55263514 Z" id="Rectangle" transform="translate(6.513714, 6.485968) rotate(-225.000000) translate(-6.513714, -6.485968) "></path>
                </g>
            </g>
        </g>
    </g>
</svg>